PathFileType	4	(X/Y/Z)	s03c0203.trc
DataRate	CameraRate	NumFrames	NumMarkers	Units	OrigDataRate	OrigDataStartFrame	OrigNumFrames
200	200	4	50	mm	200	1500	2000
Frame#	Time	racr			lacr			c7			jug			rlel			rdr			llel			ldr			s2			lic			ric			lasi			rasi			rpsi			lpsi			rgt			lgt			rth1			rth2			rth3			rth4			rlfc			rmfc			rsh1			rsh2			rsh3			rsh4			rlmal			rcal			rtoe			rmt5			rmt1			lth1			lth2			lth4			lth3			llfc			lmfc			lsh1			lsh2			lsh3			lsh4			llmal			lcal			ltoe			lmt1			lmt5			SBIKE			LBIKE			RBIKE			
		X1	Y1	Z1	X2	Y2	Z2	X3	Y3	Z3	X4	Y4	Z4	X5	Y5	Z5	X6	Y6	Z6	X7	Y7	Z7	X8	Y8	Z8	X9	Y9	Z9	X10	Y10	Z10	X11	Y11	Z11	X12	Y12	Z12	X13	Y13	Z13	X14	Y14	Z14	X15	Y15	Z15	X16	Y16	Z16	X17	Y17	Z17	X18	Y18	Z18	X19	Y19	Z19	X20	Y20	Z20	X21	Y21	Z21	X22	Y22	Z22	X23	Y23	Z23	X24	Y24	Z24	X25	Y25	Z25	X26	Y26	Z26	X27	Y27	Z27	X28	Y28	Z28	X29	Y29	Z29	X30	Y30	Z30	X31	Y31	Z31	X32	Y32	Z32	X33	Y33	Z33	X34	Y34	Z34	X35	Y35	Z35	X36	Y36	Z36	X37	Y37	Z37	X38	Y38	Z38	X39	Y39	Z39	X40	Y40	Z40	X41	Y41	Z41	X42	Y42	Z42	X43	Y43	Z43	X44	Y44	Z44	X45	Y45	Z45	X46	Y46	Z46	X47	Y47	Z47	X48	Y48	Z48	X49	Y49	Z49	X50	Y50	Z50	
1500	7.5000	445.651821	1394.737734	-67.801923	441.046498	1418.462575	-384.707315	382.084507	1490.121370	-212.901418	381.512290	1313.859333	-220.454099	507.146514	1165.755923	77.948287	713.557221	986.966050	-25.280637	473.309362	1175.514369	-522.738311	702.595582	979.981274	-472.587826	-128.098727	1189.632204	-253.644287	38.875075	1241.702244	-427.731461	17.939303	1230.241102	-63.865284	64.626807	1170.455793	-394.737004	56.610402	1178.160222	-107.480817	-111.438392	1243.152412	-211.868228	-100.611338	1243.195843	-291.214446	0.390257	1153.761373	-54.373223	-17.156368	1097.329947	-447.007801	140.365126	1086.634074	-41.762413	229.128932	1093.647531	-44.735383	307.760700	1058.807964	-48.081957	235.154490	1127.012304	-61.735080	424.018311	999.358378	-73.049104	429.474073	979.874217	-206.553354	332.827061	867.409005	-54.078614	295.213374	788.463552	-68.691780	222.742917	737.707433	-70.088634	318.330771	771.009403	-94.226003	132.665817	639.248939	-89.265672	57.432147	618.177221	-131.134702	333.583856	476.453760	-120.363050	219.022582	518.165888	-57.703834	250.746797	515.829919	-168.462165	55.076686	953.653998	-471.248114	115.463847	891.992851	-480.647746	147.741420	910.625067	-481.432904	141.162500	807.239073	-467.181539	224.881846	707.702177	-452.418696	237.368723	697.039148	-331.121800	180.270581	541.317491	-468.663640	194.065780	459.050512	-452.834736	162.156469	374.804200	-440.581683	229.479329	457.710472	-435.026702	142.374115	248.882751	-418.402470	82.720398	210.151246	-369.387825	388.864162	174.820050	-363.540057	295.699845	181.992732	-324.946189	268.953203	154.540039	-438.138861	-221.563650	942.969714	-240.445673	-14.568365	80.261397	-437.711354	-14.528841	80.947192	-37.407349	
1501	7.5050	444.023813	1394.632902	-65.741315	442.890400	1418.368249	-382.427503	382.231265	1490.024737	-211.446166	381.509517	1313.763340	-218.979267	505.317816	1164.916268	78.393233	712.985097	987.140006	-24.882384	475.334155	1176.007065	-521.862888	704.303907	979.827332	-472.269681	-127.919409	1190.605351	-254.719355	39.896093	1241.561844	-428.294986	17.206792	1231.500399	-64.720035	65.075697	1170.252279	-395.176301	55.587521	1179.125162	-107.920414	-111.869672	1244.121835	-213.247367	-100.648609	1243.893505	-292.472892	0.201524	1156.429590	-54.840145	-17.317800	1097.875286	-449.214395	140.602264	1090.167056	-42.959474	229.399902	1097.514719	-46.449579	308.364291	1062.885326	-49.550899	235.031673	1130.796734	-63.573349	424.882164	1005.059303	-75.667785	429.796113	985.303792	-208.897659	335.846432	872.259700	-56.924471	299.542913	792.523318	-70.248680	228.052138	740.434765	-71.050210	322.707288	774.835415	-96.778888	139.909766	639.413298	-89.586154	65.715984	616.864424	-130.806377	343.897288	480.943440	-120.690974	228.541029	520.344168	-57.821258	260.146935	518.623183	-168.782913	54.435345	953.786425	-472.286969	114.620630	891.998965	-482.181528	146.979798	910.533586	-482.662859	140.069099	807.044614	-469.238923	223.674780	707.176169	-454.453454	237.082951	696.595910	-332.696008	176.337092	541.512035	-469.782598	189.008439	459.115343	-453.639707	155.863552	375.451255	-440.933530	224.442918	457.363942	-436.044032	134.526078	249.853322	-418.070643	74.586630	212.588625	-368.542212	379.580863	170.469627	-363.388709	286.640200	179.898370	-324.806093	259.110398	153.062664	-437.899747	-221.574286	942.999399	-240.536459	-14.574274	80.260054	-437.697827	-14.550634	80.933114	-37.381301	
1502	7.5100	442.550144	1394.430630	-63.871408	444.639651	1418.213803	-380.326903	382.400529	1489.898575	-210.160718	381.509994	1313.639533	-217.704856	503.596968	1164.114339	78.901196	712.427745	987.326629	-24.480151	477.476068	1176.519175	-521.064834	706.024748	979.651602	-472.029441	-128.589988	1191.873440	-255.152846	40.854483	1241.572506	-428.881902	16.623197	1232.990571	-65.351350	65.409553	1170.167258	-395.573616	54.625029	1180.041898	-108.327260	-112.093270	1245.327085	-214.269595	-100.845299	1244.738424	-293.430219	0.011313	1158.947742	-55.218913	-17.488861	1097.598490	-448.427537	140.812118	1093.287000	-43.901044	229.484125	1100.892434	-48.097871	308.558912	1066.480128	-51.411413	234.891209	1134.131171	-65.401315	425.376039	1010.165127	-78.077049	430.396540	990.011961	-211.105703	338.351160	876.202276	-59.206426	303.701440	795.639469	-71.697930	233.375260	742.080575	-71.946643	327.687664	778.647672	-97.051549	147.016688	638.648948	-89.859780	72.294323	614.368852	-130.996904	354.240117	484.932341	-121.024888	238.005926	521.835259	-57.961192	269.599476	520.831591	-168.879780	53.969555	954.096352	-473.340286	114.151930	892.392707	-483.747219	146.544607	910.953293	-483.999390	139.560974	807.400428	-471.368905	223.066305	707.066248	-456.736251	236.926867	696.811862	-334.674057	172.984873	542.306588	-471.084212	184.359004	459.806577	-454.550068	149.910949	376.769251	-441.217513	219.821806	457.548847	-437.107821	126.790560	251.712681	-417.747384	66.304255	216.168725	-368.099153	370.102610	166.599036	-363.388854	277.521605	178.449014	-324.626864	249.290660	152.213983	-437.578516	-221.585174	942.911425	-240.391209	-14.573379	80.318988	-437.674830	-14.538975	80.993249	-37.379346	
1503	7.5150	441.187610	1394.226667	-62.186027	446.424330	1417.952323	-378.223731	382.622544	1489.727599	-209.001726	381.601865	1313.470263	-216.546343	501.944277	1163.349379	79.328976	711.915031	987.502216	-23.998366	479.568050	1177.004196	-520.390143	707.722641	979.605293	-471.855864	-128.820414	1193.111592	-255.605678	41.549855	1241.802089	-429.400126	16.056525	1234.600116	-65.843973	65.647780	1170.214274	-396.007570	53.724211	1180.907388	-108.699801	-111.514657	1246.298612	-215.380056	-100.240734	1245.146921	-294.530427	-0.139962	1161.237387	-55.456231	-17.786255	1097.793428	-448.490887	140.873458	1096.039292	-44.652665	229.577463	1103.681987	-49.515803	308.576624	1069.354934	-53.197278	234.727005	1136.780231	-67.051788	425.555684	1014.306378	-80.342583	430.486926	994.212105	-213.574688	340.739298	879.129560	-61.266534	307.734065	797.499059	-72.948417	238.525820	742.668135	-72.659012	332.203318	780.881270	-97.984568	154.067738	637.013540	-90.035348	79.468158	610.852118	-130.857970	364.640162	488.391079	-121.266717	247.503375	522.489360	-58.056416	279.050185	522.301028	-168.940141	53.745112	954.734802	-474.412788	114.063883	893.205916	-485.285366	146.447281	911.819807	-485.285340	139.663450	808.160925	-473.582136	223.129431	707.600598	-459.122322	237.431474	697.451129	-337.044911	170.205599	543.700907	-472.506212	180.198010	461.105560	-455.523893	144.341553	378.746558	-441.625121	215.693604	458.354444	-438.129361	119.252846	254.519868	-417.375668	57.596729	220.913198	-368.286531	360.698562	163.491896	-363.204799	268.445341	177.455750	-324.440940	239.405571	152.200156	-437.352926	-221.503601	943.052875	-240.215782	-14.583112	80.311670	-437.697398	-14.568157	80.985363	-37.338010	
